<svg xmlns="http://www.w3.org/2000/svg" width="22" height="22" viewBox="0 0 22 22">
    <g fill="#E0119D" fill-rule="evenodd">
        <path d="M22 2.845c0 .753-.673 1.363-1.502 1.363H1.502C.672 4.208 0 3.598 0 2.845V1.572C0 .819.673.208 1.502.208h18.996C21.328.208 22 .82 22 1.572v1.273zM13.2 11.418c0 .753-.633 1.364-1.414 1.364H1.414c-.78 0-1.414-.61-1.414-1.364v-1.272c0-.753.633-1.364 1.414-1.364h10.372c.78 0 1.414.61 1.414 1.364v1.272zM17.6 20.114c0 .753-.643 1.364-1.434 1.364H1.434c-.791 0-1.434-.61-1.434-1.364v-1.272c0-.753.643-1.364 1.434-1.364h14.732c.791 0 1.434.61 1.434 1.364v1.272z"/>
    </g>
</svg>
