<svg xmlns="http://www.w3.org/2000/svg" width="39" height="30" viewBox="0 0 33 25">
    <g fill="none" fill-rule="evenodd">
        <path fill="#490E6F" d="M8.07 20.728H3.921a.728.728 0 0 0-.73.726c0 .4.327.726.73.726H8.07c.403 0 .73-.325.73-.726 0-.4-.327-.726-.73-.726z"/>
        <path fill="#FFF" d="M7.4 12.133h2.988v4.846l-1.266-.775a.727.727 0 0 0-.383-.107.744.744 0 0 0-.421.132l-.92.645.002-4.741z"/>
        <circle cx="26.563" cy="17.813" r="2.188" fill="#FFF"/>
        <path fill="#FFF" d="M4.375 1.25h13.278c1.566-.146 2.565.02 2.997.5.431.479.84 1.666 1.225 3.563V17.5h-4.863v-6.184H4.375V1.25z"/>
        <path fill="#490E6F" d="M32.285 12.379L28.663 5.63a.729.729 0 0 0-.644-.383l-5.91-.002V3.723c.003-.147.01-1.448-.92-2.4-.589-.6-1.394-.905-2.395-.905L4.393.419a.728.728 0 0 0-.73.726v9.536H.993a.728.728 0 0 0-.73.726v12.815c0 .4.328.726.73.726H14.93a2.589 2.589 0 0 0 2.593-2.58v-4.362h6.238a2.918 2.918 0 0 0 2.902 2.604 2.916 2.916 0 0 0 2.903-2.604h2.076c.403 0 .73-.325.73-.726v-4.56c0-.12-.031-.237-.087-.341zm-16.221 9.99c0 .62-.508 1.128-1.133 1.128H1.723V12.133h4.218v6.144a.726.726 0 0 0 .73.726.736.736 0 0 0 .421-.134l1.676-1.176 1.967 1.202a.733.733 0 0 0 .738.015.726.726 0 0 0 .374-.633v-6.144h4.217v10.236zM7.4 12.133h2.988v4.846l-1.266-.775a.727.727 0 0 0-.383-.107.744.744 0 0 0-.421.132l-.92.645.002-4.741zm9.393-1.452H5.122v-8.81h13.672c.596 0 1.034.15 1.344.46.516.521.513 1.35.513 1.373v12.85h-3.127v-5.147c0-.4-.328-.726-.73-.726zm9.869 8.476a1.457 1.457 0 0 1-1.46-1.451c0-.8.656-1.451 1.46-1.451.804 0 1.46.651 1.46 1.451s-.654 1.451-1.46 1.451zm2.678-2.603a2.924 2.924 0 0 0-5.356 0h-1.877l.002-9.858h5.472l2.762 5.148h-5.096v-2.11h1.207c.403 0 .729-.325.729-.726 0-.4-.326-.726-.73-.726h-1.936a.727.727 0 0 0-.73.726v3.563c0 .4.327.726.73.726h6.394v3.257H29.34z"/>
    </g>
</svg>
